<?xml version="1.0" encoding="utf-8"?>
<!-- Generator: Adobe Illustrator 16.0.0, SVG Export Plug-In . SVG Version: 6.00 Build 0)  -->
<!DOCTYPE svg PUBLIC "-//W3C//DTD SVG 1.1//EN" "http://www.w3.org/Graphics/SVG/1.1/DTD/svg11.dtd">
<svg version="1.1" id="Layer_1" xmlns="http://www.w3.org/2000/svg" xmlns:xlink="http://www.w3.org/1999/xlink" x="0px" y="0px"
	 width="389.69px" height="410.31px" viewBox="0 0 389.69 410.31" enable-background="new 0 0 389.69 410.31" xml:space="preserve">
<g>
	<circle fill="#CECECC" cx="189.745" cy="172.07" r="5.542"/>
	<circle fill="#CECECC" cx="189.662" cy="230.397" r="5.541"/>
	<circle fill="#CECECC" cx="340.278" cy="39.281" r="11.999"/>
	<circle fill="#CECECC" cx="329.779" cy="6.283" r="5.25"/>
	<path fill="#CECECC" d="M388.824,227.679c-2.978-13.482-16.324-21.997-29.803-19.021c-2.717,0.6-5.506,1.201-8.325,1.802
		c1.561-9.058,2.382-18.375,2.382-27.89c0-145.5-116-160.5-157.5-160.5c-31.226,0-104.625,14.729-139.056,79.314v-0.785
		c-2.756,5.353-5.256,11.083-7.463,17.209c-0.002,0.005-0.004,0.01-0.005,0.014c-0.047,0.132-0.096,0.262-0.143,0.394
		c-6.809,18.049-10.833,39.319-10.833,64.354c0,4.911,0.219,9.77,0.644,14.567c0.322,4.701,0.843,9.346,1.553,13.927
		c-0.002-0.001-0.012-0.006-0.013-0.006l0.013,0.007c0.021,0.133,0.043,0.265,0.064,0.398l-1.11,2.01
		c-2.311-0.494-4.603-0.989-6.839-1.483c-13.479-2.976-26.826,5.538-29.803,19.021c-2.977,13.482,5.539,26.825,19.021,29.804
		c6.879,1.519,13.685,2.947,20.441,4.314c4.254,1.328,9.047,2.698,14.408,4.055c4.195,6.761,9.381,17.472,9.121,28.822
		c-0.719,31.395-16.042,35.299-10.719,69.396c8.486,54.361,71.902,45.395,48,31.332c-11.333-6.666-23.826-22.879-11.333-52.666
		s16.886-24.576,22.834-53.791c0.956-4.693,1.437-9.083,1.569-13.148c13.398,1.291,27.26,2.087,41.57,2.396
		c-2.761,5.803-5.478,12.732-6.089,18.544c-1.333,12.667,0.666,22.667,7.333,32s25.334,16.666,26.667,27.333s-4,20-6.667,24
		s12.667,5.334,22-7.333c9.333-12.667,16-30,9.333-41.333c-6.666-11.334-17.333-12.667-16.666-24.667
		c0.458-8.255,5.018-21.557,7.82-29.056c17.141-0.751,34.838-2.127,53.072-4.124c0.008,4.68,0.472,9.819,1.605,15.39
		c5.949,29.214,10.342,24.002,22.835,53.789s0,46-11.333,52.668c-23.902,14.061,39.514,23.027,48-31.334
		c5.322-34.097-10-38.002-10.719-69.396c-0.271-11.802,5.348-22.917,9.617-29.613c18.057-3.101,36.553-6.729,55.492-10.913
		C383.285,254.505,391.801,241.161,388.824,227.679z M240.615,68.067c16.016,0,29,12.984,29,29c0,16.016-12.984,29-29,29
		s-29-12.984-29-29C211.615,81.052,224.6,68.067,240.615,68.067z M142.079,235.306c-11.774-3.43-23.111-8.274-33.576-14.709
		c0.016-0.15,0.049-0.294,0.052-0.447l0.19-10.993c0.047-2.761-2.152-5.038-4.913-5.085c-2.744-0.087-5.038,2.151-5.085,4.913
		l-0.084,4.878c-3.314-2.519-6.519-5.217-9.583-8.121c-6.09-5.77-7.658-17.841-6.859-31.082
		c10.031,5.528,23.484,12.016,39.557,17.645l-0.889,8.854c-0.275,2.748,1.729,5.198,4.476,5.474
		c0.169,0.017,0.338,0.025,0.505,0.025c2.537,0,4.71-1.923,4.969-4.501l0.668-6.661c3.43,1.049,6.948,2.055,10.573,2.99V235.306z
		 M142.079,188.148c-9.961-2.693-19.173-5.903-27.493-9.257l1.615-5.384c0.793-2.645-0.708-5.432-3.353-6.226
		c-2.646-0.795-5.433,0.708-6.226,3.353l-1.294,4.313c-8.693-3.91-16.118-7.824-21.986-11.19
		c1.498-10.502,4.078-20.875,6.736-28.705c0,0,7.743,4.299,21.843,9.092l-0.807,6.658c-0.332,2.741,1.621,5.233,4.362,5.565
		c0.204,0.024,0.407,0.037,0.608,0.037c2.493,0,4.65-1.862,4.957-4.399l0.584-4.814c6.046,1.749,12.879,3.458,20.453,4.948V188.148z
		 M121.079,97.067c0-16.016,12.984-29,29-29s29,12.984,29,29c0,16.016-12.984,29-29,29S121.079,113.083,121.079,97.067z
		 M226.078,238.797c-23.338,4.27-49.311,4.537-74-0.938v-37.025c10.932,2.325,21.807,3.814,32.584,4.484l-0.001,8.576
		c0,2.762,2.238,5.001,4.999,5.001c0,0,0,0,0.001,0c2.761,0,5-2.238,5-4.999l0.001-8.2c0.953,0.013,1.906,0.039,2.857,0.039
		c9.625,0,19.156-0.683,28.559-2.035V238.797z M226.078,193.6c-10.289,1.56-20.75,2.257-31.333,2.107l0.001-7.134
		c0-2.762-2.238-5-4.999-5.001c0,0,0,0,0,0c-2.761,0-5,2.238-5,4.999l-0.001,6.746c-10.794-0.695-21.7-2.262-32.667-4.704v-36.716
		c20.557,3.194,45.567,4.513,74,1.114V193.6z M288.078,212.614c-4.285,3.668-9.359,7.092-15.047,10.22l0.18-2.198
		c0.225-2.752-1.825-5.165-4.578-5.389c-2.758-0.224-5.166,1.824-5.389,4.576l-0.566,6.938c-0.031,0.384-0.009,0.757,0.044,1.122
		c-8.102,3.522-17.079,6.503-26.644,8.8v-34.691c9.66-1.906,19.172-4.555,28.521-7.911l0.07,6.602
		c0.029,2.743,2.262,4.947,4.999,4.947c0.019,0,0.036,0,0.054,0c2.762-0.029,4.977-2.292,4.947-5.053l-0.111-10.364
		c10.214-4.282,20.217-9.435,29.979-15.46C302.229,189.527,297.49,204.559,288.078,212.614z M306.002,161.944
		c-14.065,9.395-28.669,16.853-43.709,22.351l0.118-6.805c0.048-2.761-2.151-5.038-4.913-5.085
		c-2.742-0.073-5.037,2.151-5.085,4.913l-0.179,10.335c-5.336,1.62-10.721,3.011-16.156,4.144v-38.158
		c13.243-2.054,27.167-5.15,41.674-9.546l-0.078,12.361c-0.018,2.761,2.207,5.014,4.968,5.032c0.011,0,0.021,0,0.032,0
		c2.746,0,4.982-2.218,5-4.968l0.1-15.636c6.01-2.037,12.113-4.3,18.305-6.809C306.209,134.018,307.179,146.532,306.002,161.944z"/>
	<circle fill="#CECECC" cx="150.079" cy="96.07" r="14"/>
	<circle fill="#CECECC" cx="241.078" cy="96.07" r="14"/>
</g>
</svg>
