<?xml version="1.0" encoding="utf-8"?>
<!-- Generator: Adobe Illustrator 16.0.0, SVG Export Plug-In . SVG Version: 6.00 Build 0)  -->
<!DOCTYPE svg PUBLIC "-//W3C//DTD SVG 1.1//EN" "http://www.w3.org/Graphics/SVG/1.1/DTD/svg11.dtd">
<svg version="1.1" id="Layer_1" xmlns="http://www.w3.org/2000/svg" xmlns:xlink="http://www.w3.org/1999/xlink" x="0px" y="0px"
	 width="183.975px" height="32.357px" viewBox="0 0 183.975 32.357" enable-background="new 0 0 183.975 32.357"
	 xml:space="preserve">
<g>
	<g>
		<path fill="#118DCD" d="M11.713,0.071L9.217,13.127h13.152l2.496-13.057h5.617l-6.145,32.354h-5.617l2.736-14.306H8.256
			L5.568,32.425H0L6.145,0.071H11.713z"/>
		<path fill="#118DCD" d="M24.867,0.071h5.615L25.25,27.529h12.722l-0.912,4.896H18.723L24.867,0.071z"/>
	</g>
	<g>
		<path fill="#FEC045" d="M48.213,0.071l-2.496,13.057h13.152l2.496-13.057h5.617l-6.145,32.354h-5.617l2.736-14.306H44.756
			l-2.688,14.306H36.5l6.145-32.354H48.213z"/>
		<path fill="#FEC045" d="M61.367,0.071h5.615L61.75,27.529h12.722l-0.912,4.896H55.223L61.367,0.071z"/>
	</g>
	<g>
		<path fill="#21B24B" d="M84.713,0.071l-2.496,13.057h13.152l2.496-13.057h5.617l-6.145,32.354h-5.617l2.736-14.306H81.256
			l-2.688,14.306H73l6.145-32.354H84.713z"/>
		<path fill="#21B24B" d="M97.867,0.071h5.615L98.25,27.529h12.722l-0.912,4.896H91.723L97.867,0.071z"/>
	</g>
	<g>
		<path fill="#9D248F" d="M121.213,0.071l-2.496,13.057h13.152l2.496-13.057h5.617l-6.145,32.354h-5.617l2.736-14.306h-13.201
			l-2.688,14.306H109.5l6.145-32.354H121.213z"/>
		<path fill="#9D248F" d="M134.367,0.071h5.615l-5.232,27.458h12.722l-0.912,4.896h-18.337L134.367,0.071z"/>
	</g>
	<g>
		<path fill="#F05123" d="M157.713,0.071l-2.496,13.057h13.152l2.496-13.057h5.617l-6.145,32.354h-5.617l2.736-14.306h-13.201
			l-2.688,14.306H146l6.145-32.354H157.713z"/>
		<path fill="#F05123" d="M170.867,0.071h5.615l-5.232,27.458h12.722l-0.912,4.896h-18.337L170.867,0.071z"/>
	</g>
</g>
</svg>
